<svg width="136" height="38" viewBox="0 0 136 38" fill="none" xmlns="http://www.w3.org/2000/svg">
<path d="M33.9 28.175C32.6167 28.175 31.4667 27.9667 30.45 27.55C29.4333 27.1333 28.6167 26.5167 28 25.7C27.4 24.8833 27.0833 23.9 27.05 22.75H31.6C31.6667 23.4 31.8917 23.9 32.275 24.25C32.6583 24.5833 33.1583 24.75 33.775 24.75C34.4083 24.75 34.9083 24.6083 35.275 24.325C35.6417 24.025 35.825 23.6167 35.825 23.1C35.825 22.6667 35.675 22.3083 35.375 22.025C35.0917 21.7417 34.7333 21.5083 34.3 21.325C33.8833 21.1417 33.2833 20.9333 32.5 20.7C31.3667 20.35 30.4417 20 29.725 19.65C29.0083 19.3 28.3917 18.7833 27.875 18.1C27.3583 17.4167 27.1 16.525 27.1 15.425C27.1 13.7917 27.6917 12.5167 28.875 11.6C30.0583 10.6667 31.6 10.2 33.5 10.2C35.4333 10.2 36.9917 10.6667 38.175 11.6C39.3583 12.5167 39.9917 13.8 40.075 15.45H35.45C35.4167 14.8833 35.2083 14.4417 34.825 14.125C34.4417 13.7917 33.95 13.625 33.35 13.625C32.8333 13.625 32.4167 13.7667 32.1 14.05C31.7833 14.3167 31.625 14.7083 31.625 15.225C31.625 15.7917 31.8917 16.2333 32.425 16.55C32.9583 16.8667 33.7917 17.2083 34.925 17.575C36.0583 17.9583 36.975 18.325 37.675 18.675C38.3917 19.025 39.0083 19.5333 39.525 20.2C40.0417 20.8667 40.3 21.725 40.3 22.775C40.3 23.775 40.0417 24.6833 39.525 25.5C39.025 26.3167 38.2917 26.9667 37.325 27.45C36.3583 27.9333 35.2167 28.175 33.9 28.175ZM42.0809 21C42.0809 19.5667 42.3475 18.3083 42.8809 17.225C43.4309 16.1417 44.1725 15.3083 45.1059 14.725C46.0392 14.1417 47.0809 13.85 48.2309 13.85C49.2142 13.85 50.0725 14.05 50.8059 14.45C51.5559 14.85 52.1309 15.375 52.5309 16.025V14.05H56.8059V28H52.5309V26.025C52.1142 26.675 51.5309 27.2 50.7809 27.6C50.0475 28 49.1892 28.2 48.2059 28.2C47.0725 28.2 46.0392 27.9083 45.1059 27.325C44.1725 26.725 43.4309 25.8833 42.8809 24.8C42.3475 23.7 42.0809 22.4333 42.0809 21ZM52.5309 21.025C52.5309 19.9583 52.2309 19.1167 51.6309 18.5C51.0475 17.8833 50.3309 17.575 49.4809 17.575C48.6309 17.575 47.9059 17.8833 47.3059 18.5C46.7225 19.1 46.4309 19.9333 46.4309 21C46.4309 22.0667 46.7225 22.9167 47.3059 23.55C47.9059 24.1667 48.6309 24.475 49.4809 24.475C50.3309 24.475 51.0475 24.1667 51.6309 23.55C52.2309 22.9333 52.5309 22.0917 52.5309 21.025ZM73.6736 14.05V28H69.3986V26.1C68.9653 26.7167 68.3736 27.2167 67.6236 27.6C66.8903 27.9667 66.0736 28.15 65.1736 28.15C64.107 28.15 63.1653 27.9167 62.3486 27.45C61.532 26.9667 60.8986 26.275 60.4486 25.375C59.9986 24.475 59.7736 23.4167 59.7736 22.2V14.05H64.0236V21.625C64.0236 22.5583 64.2653 23.2833 64.7486 23.8C65.232 24.3167 65.882 24.575 66.6986 24.575C67.532 24.575 68.1903 24.3167 68.6736 23.8C69.157 23.2833 69.3986 22.5583 69.3986 21.625V14.05H73.6736ZM75.8943 21.025C75.8943 19.575 76.186 18.3083 76.7693 17.225C77.3693 16.1417 78.1943 15.3083 79.2443 14.725C80.311 14.1417 81.5277 13.85 82.8943 13.85C84.6443 13.85 86.1027 14.3083 87.2693 15.225C88.4527 16.1417 89.2277 17.4333 89.5943 19.1H85.0443C84.661 18.0333 83.9193 17.5 82.8193 17.5C82.036 17.5 81.411 17.8083 80.9443 18.425C80.4777 19.025 80.2443 19.8917 80.2443 21.025C80.2443 22.1583 80.4777 23.0333 80.9443 23.65C81.411 24.25 82.036 24.55 82.8193 24.55C83.9193 24.55 84.661 24.0167 85.0443 22.95H89.5943C89.2277 24.5833 88.4527 25.8667 87.2693 26.8C86.086 27.7333 84.6277 28.2 82.8943 28.2C81.5277 28.2 80.311 27.9083 79.2443 27.325C78.1943 26.7417 77.3693 25.9083 76.7693 24.825C76.186 23.7417 75.8943 22.475 75.8943 21.025ZM94.0311 12.6C93.2811 12.6 92.6644 12.3833 92.1811 11.95C91.7144 11.5 91.4811 10.95 91.4811 10.3C91.4811 9.63333 91.7144 9.08333 92.1811 8.65C92.6644 8.2 93.2811 7.975 94.0311 7.975C94.7644 7.975 95.3644 8.2 95.8311 8.65C96.3144 9.08333 96.5561 9.63333 96.5561 10.3C96.5561 10.95 96.3144 11.5 95.8311 11.95C95.3644 12.3833 94.7644 12.6 94.0311 12.6ZM96.1561 14.05V28H91.8811V14.05H96.1561ZM107.779 28L103.529 22.15V28H99.2541V9.5H103.529V19.725L107.754 14.05H113.029L107.229 21.05L113.079 28H107.779ZM121.058 28.2C119.692 28.2 118.458 27.9083 117.358 27.325C116.275 26.7417 115.417 25.9083 114.783 24.825C114.167 23.7417 113.858 22.475 113.858 21.025C113.858 19.5917 114.175 18.3333 114.808 17.25C115.442 16.15 116.308 15.3083 117.408 14.725C118.508 14.1417 119.742 13.85 121.108 13.85C122.475 13.85 123.708 14.1417 124.808 14.725C125.908 15.3083 126.775 16.15 127.408 17.25C128.042 18.3333 128.358 19.5917 128.358 21.025C128.358 22.4583 128.033 23.725 127.383 24.825C126.75 25.9083 125.875 26.7417 124.758 27.325C123.658 27.9083 122.425 28.2 121.058 28.2ZM121.058 24.5C121.875 24.5 122.567 24.2 123.133 23.6C123.717 23 124.008 22.1417 124.008 21.025C124.008 19.9083 123.725 19.05 123.158 18.45C122.608 17.85 121.925 17.55 121.108 17.55C120.275 17.55 119.583 17.85 119.033 18.45C118.483 19.0333 118.208 19.8917 118.208 21.025C118.208 22.1417 118.475 23 119.008 23.6C119.558 24.2 120.242 24.5 121.058 24.5Z" fill="#1A9A55"/>
<path d="M17 15.3693H18C19.0609 15.3693 20.0783 15.8129 20.8284 16.6026C21.5786 17.3924 22 18.4634 22 19.5803C22 20.6971 21.5786 21.7682 20.8284 22.5579C20.0783 23.3476 19.0609 23.7913 18 23.7913H17" fill="#1A9A55"/>
<path d="M17 15.3693H18C19.0609 15.3693 20.0783 15.8129 20.8284 16.6026C21.5786 17.3924 22 18.4634 22 19.5803C22 20.6971 21.5786 21.7682 20.8284 22.5579C20.0783 23.3476 19.0609 23.7913 18 23.7913H17" stroke="#1A9A55" stroke-width="2" stroke-linecap="round" stroke-linejoin="round"/>
<path d="M1 15.3693H17V24.844C17 25.9608 16.5786 27.0319 15.8284 27.8216C15.0783 28.6113 14.0609 29.055 13 29.055H5C3.93913 29.055 2.92172 28.6113 2.17157 27.8216C1.42143 27.0319 1 25.9608 1 24.844V15.3693Z" fill="white" stroke="#1A9A55" stroke-width="2" stroke-linecap="round" stroke-linejoin="round"/>
<path d="M5 8V11.1582" stroke="#1A9A55" stroke-width="2" stroke-linecap="round" stroke-linejoin="round"/>
<path d="M9 8V11.1582" stroke="#1A9A55" stroke-width="2" stroke-linecap="round" stroke-linejoin="round"/>
<path d="M13 8V11.1582" stroke="#1A9A55" stroke-width="2" stroke-linecap="round" stroke-linejoin="round"/>
</svg>
